HIERARCHY
ROOT joint_Root
{
	OFFSET 0.0 0.0 0.0
	CHANNELS 6 Xposition Yposition Zposition Zrotation Xrotation Yrotation 
	JOINT Hips
	{
		OFFSET 4.5925 91.4895 -427.239
		CHANNELS 6 Xposition Yposition Zposition Zrotation Xrotation Yrotation 
		JOINT Spine
		{
			OFFSET 15.7357 0.0 0.0
			CHANNELS 6 Xposition Yposition Zposition Zrotation Xrotation Yrotation 
			JOINT Chest
			{
				OFFSET 8.98455 -0.406207 0.0
				CHANNELS 6 Xposition Yposition Zposition Zrotation Xrotation Yrotation 
				JOINT Neck
				{
					OFFSET 16.3773 0.0 0.0
					CHANNELS 6 Xposition Yposition Zposition Zrotation Xrotation Yrotation 
					JOINT Head
					{
						OFFSET 6.45672 0.0 0.0
						CHANNELS 6 Xposition Yposition Zposition Zrotation Xrotation Yrotation 
						End Site
						{
							OFFSET 0.0 0.0 0.0
						}
					}
				}
				JOINT Shoulder_L
				{
					OFFSET 12.9942 -0.242716 4.98039
					CHANNELS 6 Xposition Yposition Zposition Zrotation Xrotation Yrotation 
					JOINT UpperArm_L
					{
						OFFSET 5.34809 0.0 0.0
						CHANNELS 6 Xposition Yposition Zposition Zrotation Xrotation Yrotation 
						JOINT LowerArm_L
						{
							OFFSET 24.3286 1.87007e-05 0.0
							CHANNELS 6 Xposition Yposition Zposition Zrotation Xrotation Yrotation 
							JOINT Hand_L
							{
								OFFSET 22.2916 0.0 0.0
								CHANNELS 6 Xposition Yposition Zposition Zrotation Xrotation Yrotation 
								End Site
								{
									OFFSET 0.0 0.0 0.0
								}
							}
						}
					}
				}
				JOINT Shoulder_R
				{
					OFFSET 12.9945 -0.242716 -4.98039
					CHANNELS 6 Xposition Yposition Zposition Zrotation Xrotation Yrotation 
					JOINT UpperArm_R
					{
						OFFSET -5.34813 0.0 0.0
						CHANNELS 6 Xposition Yposition Zposition Zrotation Xrotation Yrotation 
						JOINT LowerArm_R
						{
							OFFSET -24.3289 0.000322201 0.0
							CHANNELS 6 Xposition Yposition Zposition Zrotation Xrotation Yrotation 
							JOINT Hand_R
							{
								OFFSET -22.2915 -0.000108084 0.0
								CHANNELS 6 Xposition Yposition Zposition Zrotation Xrotation Yrotation 
								End Site
								{
									OFFSET 0.0 0.0 0.0
								}
							}
						}
					}
				}
			}
		}
		JOINT UpperLeg_L
		{
			OFFSET -2.19248 -6.46944 0.0
			CHANNELS 6 Xposition Yposition Zposition Zrotation Xrotation Yrotation 
			JOINT LowerLeg_L
			{
				OFFSET 39.0811 0.0 -1.23785e-05
				CHANNELS 6 Xposition Yposition Zposition Zrotation Xrotation Yrotation 
				JOINT Foot_L
				{
					OFFSET 40.9854 0.0 -1.26872e-05
					CHANNELS 6 Xposition Yposition Zposition Zrotation Xrotation Yrotation 
					JOINT Toes_L
					{
						OFFSET 11.7543 0.0 0.0
						CHANNELS 6 Xposition Yposition Zposition Zrotation Xrotation Yrotation 
						End Site
						{
							OFFSET 0.0 0.0 0.0
						}
					}
				}
			}
		}
		JOINT UpperLeg_R
		{
			OFFSET -2.19251 6.46944 0.0
			CHANNELS 6 Xposition Yposition Zposition Zrotation Xrotation Yrotation 
			JOINT LowerLeg_R
			{
				OFFSET -39.0811 -0.00228153 -0.0401928
				CHANNELS 6 Xposition Yposition Zposition Zrotation Xrotation Yrotation 
				JOINT Foot_R
				{
					OFFSET -40.9854 0.0 0.0
					CHANNELS 6 Xposition Yposition Zposition Zrotation Xrotation Yrotation 
					JOINT Toes_R
					{
						OFFSET -11.7543 0.0 0.0
						CHANNELS 6 Xposition Yposition Zposition Zrotation Xrotation Yrotation 
						End Site
						{
							OFFSET 0.0 0.0 0.0
						}
					}
				}
			}
		}
	}
}
MOTION
Frames:	5
Frame Time:	0.0333333
0.000000 0.000000 0.000000 0.000000 0.000000 -0.000000 122.545000 83.821400 156.871000 -141.579000 -82.169400 122.372000 15.735700 0.000005 -0.000001 113.757000 82.164100 -115.015000 8.984550 -0.406207 -0.000000 6.679540 6.305690 -2.884570 16.377300 -0.000001 -0.000001 -1.580770 -4.885100 -0.011922 6.456720 -0.000001 -0.000000 -7.115080 -9.616440 -2.850710 12.994200 -0.242716 4.980390 -88.685600 -2.960390 -66.036000 5.348090 -0.000007 -0.000001 -64.557500 34.410600 30.061300 24.328600 0.000019 0.000005 0.726562 0.065939 -84.805500 22.291600 -0.000001 0.000005 0.572062 5.539380 -8.215030 12.994500 -0.242716 -4.980390 89.680300 2.044780 -81.105400 -5.348130 -0.000001 -0.000004 -47.072000 42.778800 -45.022800 -24.328900 0.000322 -0.000009 -12.151300 4.868410 -111.501000 -22.291500 -0.000108 -0.000004 19.786800 5.579900 -10.223100 -2.192480 -6.469440 -0.000000 -177.651000 -21.884500 -38.910100 39.081100 -0.000007 -0.000012 -0.532608 0.483656 47.759000 40.985400 -0.000006 -0.000013 -8.857790 2.850940 -62.790600 11.754300 -0.000000 0.000003 -0.007643 -0.085099 -20.041800 -2.192510 6.469440 -0.000001 167.175000 7.508420 -170.690000 -39.081100 -0.002282 -0.040193 0.025333 -0.034267 32.745400 -40.985400 0.000008 0.000006 17.822600 13.381700 -79.139700 -11.754300 -0.000006 -0.000006 -0.186538 -0.622262 -43.147300
0.000000 0.000000 0.000000 0.000000 0.000000 -0.000000 117.365000 82.512200 160.062000 -137.255000 -81.986800 127.310000 15.735700 0.000005 -0.000001 110.394000 82.550200 -111.612000 8.984550 -0.406207 -0.000000 6.275970 5.193200 -2.718910 16.377300 -0.000001 -0.000001 -1.979110 -4.812430 0.651271 6.456720 -0.000001 -0.000000 -6.346150 -9.304430 -2.103560 12.994200 -0.242716 4.980390 -91.073800 2.321780 -65.179100 5.348090 -0.000007 -0.000001 -56.228300 33.164400 18.222500 24.328600 0.000019 0.000005 0.739159 0.093342 -82.826200 22.291600 -0.000001 0.000005 1.104300 5.530000 -7.796210 12.994500 -0.242716 -4.980390 88.778200 6.849500 -79.874500 -5.348130 -0.000001 -0.000004 -49.744400 43.508700 -30.150800 -24.328900 0.000322 -0.000009 -11.758600 2.397650 -101.372000 -22.291500 -0.000108 -0.000004 18.956900 5.601200 -11.417800 -2.192480 -6.469440 -0.000000 -177.762000 -21.028400 -38.189700 39.081100 -0.000007 -0.000012 -0.402757 0.275188 55.657700 40.985400 -0.000006 -0.000013 -8.162630 2.780700 -70.170900 11.754300 -0.000000 0.000003 -0.000105 -0.001746 -16.648400 -2.192510 6.469440 -0.000001 165.900000 4.462950 -170.329000 -39.081100 -0.002282 -0.040193 0.086709 -0.108093 37.660500 -40.985400 0.000008 0.000006 17.774300 11.612400 -73.130900 -11.754300 -0.000006 -0.000006 -0.342079 -0.840932 -54.043800
0.000000 0.000000 0.000000 0.000000 0.000000 -0.000000 111.982000 82.186800 162.988000 -150.003000 -82.842500 116.260000 15.735700 0.000005 -0.000001 106.019000 82.664700 -107.559000 8.984550 -0.406207 -0.000000 6.403800 4.054730 -3.305600 16.377300 -0.000001 -0.000001 -1.392990 -5.912850 1.020080 6.456720 -0.000001 -0.000000 -5.344000 -10.433600 1.781220 12.994200 -0.242716 4.980390 -92.149800 4.642550 -65.116400 5.348090 -0.000007 -0.000001 -52.916600 30.099000 3.006170 24.328600 0.000019 0.000005 0.620588 0.083123 -82.413800 22.291600 -0.000001 0.000005 0.505468 5.518790 -7.307810 12.994500 -0.242716 -4.980390 87.790400 9.818870 -77.252300 -5.348130 -0.000001 -0.000004 -57.285300 40.147900 -12.751500 -24.328900 0.000322 -0.000009 -11.555700 -1.332750 -83.443300 -22.291500 -0.000108 -0.000004 15.566700 5.580170 -10.130000 -2.192480 -6.469440 -0.000000 -178.492000 -18.540800 -33.859900 39.081100 -0.000007 -0.000012 -0.439255 0.267594 58.651300 40.985400 -0.000006 -0.000013 -7.039860 2.660250 -76.320200 11.754300 -0.000000 0.000003 -0.000120 -0.001203 -16.623500 -2.192510 6.469440 -0.000001 165.409000 3.793380 -172.270000 -39.081100 -0.002282 -0.040193 0.176283 -0.163978 46.537600 -40.985400 0.000008 0.000006 17.828200 10.190000 -57.988900 -11.754300 -0.000006 -0.000006 -0.565529 -1.048770 -66.441700
0.000000 0.000000 0.000000 0.000000 0.000000 -0.000000 107.154000 82.526000 165.561000 -168.721000 -83.456200 98.860700 15.735700 0.000005 -0.000001 101.458000 82.747700 -103.169000 8.984550 -0.406207 -0.000000 6.501510 2.891440 -3.583580 16.377300 -0.000001 -0.000001 -1.079040 -6.951480 1.085760 6.456720 -0.000001 -0.000000 -3.954290 -11.172000 3.774380 12.994200 -0.242716 4.980390 -92.114300 4.879080 -66.539500 5.348090 -0.000007 -0.000001 -56.052500 27.768300 -10.232100 24.328600 0.000019 0.000005 -2.825350 -0.203068 -85.843800 22.291600 -0.000001 0.000005 -0.203015 5.493020 -6.251610 12.994500 -0.242716 -4.980390 87.528400 10.136300 -76.219000 -5.348130 -0.000001 -0.000004 -63.548200 31.659200 3.510380 -24.328900 0.000322 -0.000009 -1.319650 -0.417665 -72.391900 -22.291500 -0.000108 -0.000004 10.952900 5.515310 -7.247550 -2.192480 -6.469440 -0.000000 -179.376000 -15.854500 -28.586700 39.081100 -0.000007 -0.000012 -0.460657 0.285304 58.229500 40.985400 -0.000006 -0.000013 -6.035850 2.243540 -80.377600 11.754300 -0.000000 0.000003 -0.000150 -0.001450 -16.632700 -2.192510 6.469440 -0.000001 166.109000 2.485840 -178.605000 -39.081100 -0.002282 -0.040193 0.234256 -0.140457 58.704300 -40.985400 0.000008 0.000006 12.371400 6.596760 -40.481200 -11.754300 -0.000006 -0.000006 -0.178107 -0.607437 -42.455800
0.000000 0.000000 0.000000 0.000000 0.000000 -0.000000 103.047000 83.111000 167.608000 168.624000 -84.038200 76.658600 15.735700 0.000005 -0.000001 93.692000 82.876800 -95.124700 8.984550 -0.406207 -0.000000 6.464750 0.930866 -2.914720 16.377300 -0.000001 -0.000001 -1.567020 -7.002280 0.170274 6.456720 -0.000001 -0.000000 -3.510130 -10.236600 4.452520 12.994200 -0.242716 4.980390 -90.997700 2.493290 -68.196000 5.348090 -0.000007 -0.000001 -61.729900 28.768700 -21.601300 24.328600 0.000019 0.000005 -6.843160 0.184789 -91.508900 22.291600 -0.000001 0.000005 0.496350 5.458720 -4.957870 12.994500 -0.242716 -4.980390 87.494500 9.092350 -74.518000 -5.348130 -0.000001 -0.000004 -63.293200 30.749100 15.707500 -24.328900 0.000322 -0.000009 -10.280500 -2.598230 -75.906600 -22.291500 -0.000108 -0.000004 5.579790 5.542150 -8.341880 -2.192480 -6.469440 -0.000000 -179.470000 -13.895200 -24.055800 39.081100 -0.000007 -0.000012 -0.462781 0.308785 56.288300 40.985400 -0.000006 -0.000013 -5.008410 2.398060 -82.856800 11.754300 -0.000000 0.000003 -0.000148 -0.001436 -16.632100 -2.192510 6.469440 -0.000001 168.619000 1.592770 173.413000 -39.081100 -0.002282 -0.040193 0.239030 -0.087660 69.616200 -40.985400 0.000008 0.000006 10.977700 1.553960 -33.284600 -11.754300 -0.000006 -0.000006 -0.030370 -0.219153 -25.552100
